<?xml version="1.0" encoding="utf-8"?>
<!-- Generator: Adobe Illustrator 26.3.1, SVG Export Plug-In . SVG Version: 6.00 Build 0)  -->
<svg version="1.1" id="Layer_1" xmlns="http://www.w3.org/2000/svg" xmlns:xlink="http://www.w3.org/1999/xlink" x="0px" y="0px"
	 viewBox="0 0 2834.6 1984.2" style="enable-background:new 0 0 2834.6 1984.2;" xml:space="preserve">
<style type="text/css">
	.st0{fill:none;stroke:#000000;stroke-width:1.000000e-03;stroke-linecap:round;stroke-linejoin:round;stroke-miterlimit:11.3386;}
	.st1{fill:none;stroke:#231F20;stroke-width:1.000000e-03;stroke-linecap:round;stroke-linejoin:round;stroke-miterlimit:11.3386;}
	.st2{fill:none;stroke:#231F20;stroke-width:1.000000e-03;stroke-miterlimit:10;}
	.st3{font-family:'Arial-Black';}
	.st4{font-size:50px;}
	.st5{font-size:9px;}
	.st6{fill:none;stroke:#010101;stroke-width:1.000000e-03;stroke-miterlimit:10;}
	.st7{fill:none;stroke:#231F20;stroke-width:2;stroke-miterlimit:10;}
</style>
<g id="p-0">
	<path class="st0" d="M21.3,512h28.2v8.4c0,0.1,0.1,0.1,0.1,0.1h17c0.1,0,0.1-0.1,0.1-0.1V512h16.7v8.4c0,0.1,0.1,0.1,0.1,0.1h17
		c0.1,0,0.1-0.1,0.1-0.1V512h16.7v8.4c0,0.1,0.1,0.1,0.1,0.1h17c0.1,0,0.1-0.1,0.1-0.1V512h16.7v8.4c0,0.1,0.1,0.1,0.1,0.1h17
		c0.1,0,0.1-0.1,0.1-0.1V512h16.7v8.4c0,0.1,0.1,0.1,0.1,0.1h17c0.1,0,0.1-0.1,0.1-0.1V512H219v8.4c0,0.1,0.1,0.1,0.1,0.1h17
		c0.1,0,0.1-0.1,0.1-0.1V512h16.7v8.4c0,0.1,0.1,0.1,0.1,0.1h17c0.1,0,0.1-0.1,0.1-0.1V512h16.7v8.4c0,0.1,0.1,0.1,0.1,0.1h17
		c0.1,0,0.1-0.1,0.1-0.1V512h28.2h8.5c0.1,0,0.1-0.1,0.1-0.1V492c0-0.1-0.1-0.1-0.1-0.1h-8.4v-16.7h8.4c0.1,0,0.1-0.1,0.1-0.1v-17
		c0-0.1-0.1-0.1-0.1-0.1h-8.4v-16.7h8.4c0.1,0,0.1-0.1,0.1-0.1v-19.8v-8.5c0-0.1-0.1-0.1-0.1-0.1h-8.5h-28.3c-0.1,0-0.1,0.1-0.1,0.1
		v8.4h-16.7v-8.4c0-0.1-0.1-0.1-0.1-0.1h-17c-0.1,0-0.1,0.1-0.1,0.1v8.4h-16.7v-8.4c0-0.1-0.1-0.1-0.1-0.1h-17
		c-0.1,0-0.1,0.1-0.1,0.1v8.4h-16.7v-8.4c0-0.1-0.1-0.1-0.1-0.1h-17c-0.1,0-0.1,0.1-0.1,0.1v8.4h-16.7v-8.4c0-0.1-0.1-0.1-0.1-0.1
		h-17c-0.1,0-0.1,0.1-0.1,0.1v8.4h-16.7v-8.4c0-0.1-0.1-0.1-0.1-0.1h-17c-0.1,0-0.1,0.1-0.1,0.1v8.4h-16.7v-8.4
		c0-0.1-0.1-0.1-0.1-0.1h-17c-0.1,0-0.1,0.1-0.1,0.1v8.4H83.8v-8.4c0-0.1-0.1-0.1-0.1-0.1h-17c-0.1,0-0.1,0.1-0.1,0.1v8.4H49.8v-8.4
		c0-0.1-0.1-0.1-0.1-0.1H21.3h-8.5c-0.1,0-0.1,0.1-0.1,0.1v8.5V441c0,0.1,0.1,0.1,0.1,0.1h8.4v16.7V475v16.7h-8.4
		c-0.1,0-0.1,0.1-0.1,0.1v19.8c0,0.1,0.1,0.1,0.1,0.1h8.5V512z"/>
</g>
<g id="p-1">
	<path class="st0" d="M354.7,512h31v8.4c0,0.1,0.1,0.1,0.1,0.1h17c0.1,0,0.1-0.1,0.1-0.1V512h16.7v8.4c0,0.1,0.1,0.1,0.1,0.1h17
		c0.1,0,0.1-0.1,0.1-0.1V512h16.7v8.4c0,0.1,0.1,0.1,0.1,0.1h17c0.1,0,0.1-0.1,0.1-0.1V512h16.7v8.4c0,0.1,0.1,0.1,0.1,0.1h17
		c0.1,0,0.1-0.1,0.1-0.1V512h16.7v8.4c0,0.1,0.1,0.1,0.1,0.1h17c0.1,0,0.1-0.1,0.1-0.1V512h16.7v8.4c0,0.1,0.1,0.1,0.1,0.1h17
		c0.1,0,0.1-0.1,0.1-0.1V512h31c0.1,0,0.1-0.1,0.1-0.1v-19.7h8.4c0.1,0,0.1-0.1,0.1-0.1v-17c0-0.1-0.1-0.1-0.1-0.1h-8.4v-16.7h8.4
		c0.1,0,0.1-0.1,0.1-0.1v-17c0-0.1-0.1-0.1-0.1-0.1h-8.4v-19.7v-8.5c0-0.1-0.1-0.1-0.1-0.1h-31.2c-0.1,0-0.1,0.1-0.1,0.1v8.4h-16.7
		v-8.4c0-0.1-0.1-0.1-0.1-0.1h-17c-0.1,0-0.1,0.1-0.1,0.1v8.4h-16.7v-8.4c0-0.1-0.1-0.1-0.1-0.1h-17c-0.1,0-0.1,0.1-0.1,0.1v8.4H488
		v-8.4c0-0.1-0.1-0.1-0.1-0.1h-17c-0.1,0-0.1,0.1-0.1,0.1v8.4H454v-8.4c0-0.1-0.1-0.1-0.1-0.1h-17c-0.1,0-0.1,0.1-0.1,0.1v8.4H420
		v-8.4c0-0.1-0.1-0.1-0.1-0.1h-17c-0.1,0-0.1,0.1-0.1,0.1v8.4H386v-8.4c0-0.1-0.1-0.1-0.1-0.1h-31.2c-0.1,0-0.1,0.1-0.1,0.1v8.5
		v19.7h-8.4c-0.1,0-0.1,0.1-0.1,0.1v17c0,0.1,0.1,0.1,0.1,0.1h8.4V475h-8.4c-0.1,0-0.1,0.1-0.1,0.1v17c0,0.1,0.1,0.1,0.1,0.1h8.4
		v19.7C354.5,511.9,354.6,512,354.7,512z"/>
</g>
<g id="p-2">
	<path class="st0" d="M354.7,399.7h31v8.4c0,0.1,0.1,0.1,0.1,0.1h17c0.1,0,0.1-0.1,0.1-0.1v-8.4h16.7v8.4c0,0.1,0.1,0.1,0.1,0.1h17
		c0.1,0,0.1-0.1,0.1-0.1v-8.4h16.7v8.4c0,0.1,0.1,0.1,0.1,0.1h17c0.1,0,0.1-0.1,0.1-0.1v-8.4h16.7v8.4c0,0.1,0.1,0.1,0.1,0.1h17
		c0.1,0,0.1-0.1,0.1-0.1v-8.4h16.7v8.4c0,0.1,0.1,0.1,0.1,0.1h17c0.1,0,0.1-0.1,0.1-0.1v-8.4h16.7v8.4c0,0.1,0.1,0.1,0.1,0.1h17
		c0.1,0,0.1-0.1,0.1-0.1v-8.4h31c0.1,0,0.1-0.1,0.1-0.1v-19.7h8.4c0.1,0,0.1-0.1,0.1-0.1v-17c0-0.1-0.1-0.1-0.1-0.1V346
		c0.1,0,0.1-0.1,0.1-0.1v-17c0-0.1-0.1-0.1-0.1-0.1h-8.4v-19.7v-8.5c0-0.1-0.1-0.1-0.1-0.1h-31.2c-0.1,0-0.1,0.1-0.1,0.1v8.4h-16.7
		v-8.4c0-0.1-0.1-0.1-0.1-0.1h-17c-0.1,0-0.1,0.1-0.1,0.1v8.4h-16.7v-8.4c0-0.1-0.1-0.1-0.1-0.1h-17c-0.1,0-0.1,0.1-0.1,0.1v8.4H488
		v-8.4c0-0.1-0.1-0.1-0.1-0.1h-17c-0.1,0-0.1,0.1-0.1,0.1v8.4H454v-8.4c0-0.1-0.1-0.1-0.1-0.1h-17c-0.1,0-0.1,0.1-0.1,0.1v8.4H420
		v-8.4c0-0.1-0.1-0.1-0.1-0.1h-17c-0.1,0-0.1,0.1-0.1,0.1v8.4H386v-8.4c0-0.1-0.1-0.1-0.1-0.1h-31.2c-0.1,0-0.1,0.1-0.1,0.1v8.5
		v19.7h-8.4c-0.1,0-0.1,0.1-0.1,0.1v17c0,0.1,0.1,0.1,0.1,0.1h8.4v16.7h-8.4c-0.1,0-0.1,0.1-0.1,0.1v17c0,0.1,0.1,0.1,0.1,0.1h8.4
		v19.7C354.5,399.7,354.6,399.7,354.7,399.7z"/>
</g>
<g id="p-3">
	<path class="st0" d="M21.3,399.7h28.2v8.4c0,0.1,0.1,0.1,0.1,0.1h17c0.1,0,0.1-0.1,0.1-0.1v-8.4h16.7v8.4c0,0.1,0.1,0.1,0.1,0.1h17
		c0.1,0,0.1-0.1,0.1-0.1v-8.4h16.7v8.4c0,0.1,0.1,0.1,0.1,0.1h17c0.1,0,0.1-0.1,0.1-0.1v-8.4h16.7v8.4c0,0.1,0.1,0.1,0.1,0.1h17
		c0.1,0,0.1-0.1,0.1-0.1v-8.4h16.7v8.4c0,0.1,0.1,0.1,0.1,0.1h17c0.1,0,0.1-0.1,0.1-0.1v-8.4H219v8.4c0,0.1,0.1,0.1,0.1,0.1h17
		c0.1,0,0.1-0.1,0.1-0.1v-8.4h16.7v8.4c0,0.1,0.1,0.1,0.1,0.1h17c0.1,0,0.1-0.1,0.1-0.1v-8.4h16.7v8.4c0,0.1,0.1,0.1,0.1,0.1h17
		c0.1,0,0.1-0.1,0.1-0.1v-8.4h28.2h8.5c0.1,0,0.1-0.1,0.1-0.1v-19.8c0-0.1-0.1-0.1-0.1-0.1h-8.4V363h8.4c0.1,0,0.1-0.1,0.1-0.1v-17
		c0-0.1-0.1-0.1-0.1-0.1h-8.4v-16.7h8.4c0.1,0,0.1-0.1,0.1-0.1v-19.8v-8.5c0-0.1-0.1-0.1-0.1-0.1h-8.5h-28.3c-0.1,0-0.1,0.1-0.1,0.1
		v8.4h-16.7v-8.4c0-0.1-0.1-0.1-0.1-0.1h-17c-0.1,0-0.1,0.1-0.1,0.1v8.4h-16.7v-8.4c0-0.1-0.1-0.1-0.1-0.1h-17
		c-0.1,0-0.1,0.1-0.1,0.1v8.4h-16.7v-8.4c0-0.1-0.1-0.1-0.1-0.1h-17c-0.1,0-0.1,0.1-0.1,0.1v8.4h-16.7v-8.4c0-0.1-0.1-0.1-0.1-0.1
		h-17c-0.1,0-0.1,0.1-0.1,0.1v8.4h-16.7v-8.4c0-0.1-0.1-0.1-0.1-0.1h-17c-0.1,0-0.1,0.1-0.1,0.1v8.4h-16.7v-8.4
		c0-0.1-0.1-0.1-0.1-0.1h-17c-0.1,0-0.1,0.1-0.1,0.1v8.4H83.8v-8.4c0-0.1-0.1-0.1-0.1-0.1h-17c-0.1,0-0.1,0.1-0.1,0.1v8.4H49.8v-8.4
		c0-0.1-0.1-0.1-0.1-0.1H21.3h-8.5c-0.1,0-0.1,0.1-0.1,0.1v8.5V329c0,0.1,0.1,0.1,0.1,0.1h8.4v16.7h-8.4c-0.1,0-0.1,0.1-0.1,0.1v17
		c0,0.1,0.1,0.1,0.1,0.1h8.4v16.7h-8.4c-0.1,0-0.1,0.1-0.1,0.1v19.8c0,0.1,0.1,0.1,0.1,0.1L21.3,399.7L21.3,399.7z"/>
</g>
<g id="p-4">
	<path class="st0" d="M21.3,287.5h28.2v8.4c0,0.1,0.1,0.1,0.1,0.1h17c0.1,0,0.1-0.1,0.1-0.1v-8.4h16.7v8.4c0,0.1,0.1,0.1,0.1,0.1h17
		c0.1,0,0.1-0.1,0.1-0.1v-8.4h16.7v8.4c0,0.1,0.1,0.1,0.1,0.1h17c0.1,0,0.1-0.1,0.1-0.1v-8.4h16.7v8.4c0,0.1,0.1,0.1,0.1,0.1h17
		c0.1,0,0.1-0.1,0.1-0.1v-8.4h16.7v8.4c0,0.1,0.1,0.1,0.1,0.1h17c0.1,0,0.1-0.1,0.1-0.1v-8.4H219v8.4c0,0.1,0.1,0.1,0.1,0.1h17
		c0.1,0,0.1-0.1,0.1-0.1v-8.4h16.7v8.4c0,0.1,0.1,0.1,0.1,0.1h17c0.1,0,0.1-0.1,0.1-0.1v-8.4h16.7v8.4c0,0.1,0.1,0.1,0.1,0.1h17
		c0.1,0,0.1-0.1,0.1-0.1v-8.4h28.2c0.1,0,0.1-0.1,0.1-0.1v-31h8.4c0.1,0,0.1-0.1,0.1-0.1v-17c0-0.1-0.1-0.1-0.1-0.1h-8.4v-16.7h8.4
		c0.1,0,0.1-0.1,0.1-0.1v-17c0-0.1-0.1-0.1-0.1-0.1h-8.4v-16.7h8.4c0.1,0,0.1-0.1,0.1-0.1v-17c0-0.1-0.1-0.1-0.1-0.1h-8.4v-16.7h8.4
		c0.1,0,0.1-0.1,0.1-0.1v-17c0-0.1-0.1-0.1-0.1-0.1h-8.4v-16.7h8.4c0.1,0,0.1-0.1,0.1-0.1v-17c0-0.1-0.1-0.1-0.1-0.1h-8.4V86.2h8.4
		c0.1,0,0.1-0.1,0.1-0.1v-17c0-0.1-0.1-0.1-0.1-0.1h-8.4V38c0-0.1-0.1-0.1-0.1-0.1H304v-8.4c0-0.1-0.1-0.1-0.1-0.1h-17
		c-0.1,0-0.1,0.1-0.1,0.1v8.4h-16.7v-8.4c0-0.1-0.1-0.1-0.1-0.1h-17c-0.1,0-0.1,0.1-0.1,0.1v8.4h-16.7v-8.4c0-0.1-0.1-0.1-0.1-0.1
		h-17c-0.1,0-0.1,0.1-0.1,0.1v8.4h-16.7v-8.4c0-0.1-0.1-0.1-0.1-0.1h-17c-0.1,0-0.1,0.1-0.1,0.1v8.4h-16.7v-8.4
		c0-0.1-0.1-0.1-0.1-0.1h-17c-0.1,0-0.1,0.1-0.1,0.1v8.4h-16.7v-8.4c0-0.1-0.1-0.1-0.1-0.1h-17c-0.1,0-0.1,0.1-0.1,0.1v8.4h-16.7
		v-8.4c0-0.1-0.1-0.1-0.1-0.1h-17c-0.1,0-0.1,0.1-0.1,0.1v8.4H66.8v-8.4c0-0.1-0.1-0.1-0.1-0.1h-17c-0.1,0-0.1,0.1-0.1,0.1v8.4H21.3
		c-0.1,0-0.1,0.1-0.1,0.1v31h-8.4c-0.1,0-0.1,0.1-0.1,0.1v17c0,0.1,0.1,0.1,0.1,0.1h8.4V103h-8.4c-0.1,0-0.1,0.1-0.1,0.1v17
		c0,0.1,0.1,0.1,0.1,0.1h8.4V137h-8.4c-0.1,0-0.1,0.1-0.1,0.1v17c0,0.1,0.1,0.1,0.1,0.1h8.4V171h-8.4c-0.1,0-0.1,0.1-0.1,0.1v17
		c0,0.1,0.1,0.1,0.1,0.1h8.4V205h-8.4c-0.1,0-0.1,0.1-0.1,0.1v17c0,0.1,0.1,0.1,0.1,0.1h8.4V239h-8.4c-0.1,0-0.1,0.1-0.1,0.1v17
		c0,0.1,0.1,0.1,0.1,0.1h8.4v31C21.2,287.4,21.2,287.5,21.3,287.5z"/>
</g>
<g id="p-5">
	<path class="st1" d="M458.8,287.2h-8.4V279h16.7v8.2H458.8z"/>
	<path class="st1" d="M526.8,287.2h-8.4V279h16.7v8.2H526.8z"/>
	<path class="st1" d="M560.9,287.2h-8.4V279h16.7v8.2H560.9z"/>
	<path class="st1" d="M594.9,287.2h-8.4V279h16.7v8.2H594.9z"/>
	<path class="st1" d="M628.9,287.2h-8.4V279h16.7v8.2H628.9z"/>
	<path class="st1" d="M662.9,287.2h-8.4V279h16.7v8.2H662.9z"/>
	<path class="st1" d="M696.9,287.2h-8.4V279h16.7v8.2H696.9z"/>
	<path class="st1" d="M742.1,239.2v8.4h-8.2v-16.7h8.2V239.2z"/>
	<path class="st1" d="M742.1,205.1v8.4h-8.2v-16.7h8.2V205.1z"/>
	<path class="st1" d="M742.1,171.1v8.4h-8.2v-16.7h8.2V171.1z"/>
	<path class="st1" d="M742.1,137.1v8.4h-8.2v-16.7h8.2V137.1z"/>
	<path class="st1" d="M742.1,103.1v8.4h-8.2V94.7h8.2V103.1z"/>
	<path class="st1" d="M742.1,69.1v8.4h-8.2V60.7h8.2V69.1z"/>
	<path class="st1" d="M696.9,21h8.4v8.2h-16.7V21H696.9z"/>
	<path class="st1" d="M662.9,21h8.4v8.2h-16.7V21H662.9z"/>
	<path class="st1" d="M628.9,21h8.4v8.2h-16.7V21H628.9z"/>
	<path class="st1" d="M594.9,21h8.4v8.2h-16.7V21H594.9z"/>
	<path class="st1" d="M560.9,21h8.4v8.2h-16.7V21H560.9z"/>
	<path class="st1" d="M526.8,21h8.4v8.2h-16.7V21H526.8z"/>
	<path class="st1" d="M458.8,21h8.4v8.2h-16.7V21H458.8z"/>
	<path class="st1" d="M413.6,69.1v-8.4h8.2v16.7h-8.2V69.1z"/>
	<path class="st1" d="M413.6,103.1v-8.4h8.2v16.7h-8.2V103.1z"/>
	<path class="st1" d="M413.6,137.1v-8.4h8.2v16.7h-8.2V137.1z"/>
	<path class="st1" d="M413.6,171.1v-8.4h8.2v16.7h-8.2V171.1z"/>
	<path class="st1" d="M413.6,205.1v-8.4h8.2v16.7h-8.2V205.1z"/>
	<path class="st1" d="M413.6,239.2v-8.4h8.2v16.7h-8.2V239.2z"/>
	<path class="st1" d="M386.3,296h383.1h20.9c0.1,0,0.2-0.1,0.2-0.1v-17.4V29.7V12.4c0-0.1-0.1-0.1-0.2-0.1h-20.9H386.3h-20.9
		c-0.1,0-0.2,0.1-0.2,0.1v17.4v248.7v17.4c0,0.1,0.1,0.1,0.2,0.1H386.3L386.3,296z"/>
	<circle class="st2" cx="769.2" cy="274.7" r="7.1"/>
	<circle class="st2" cx="769.5" cy="33.5" r="7.1"/>
	<circle class="st2" cx="386.5" cy="274.6" r="7.1"/>
	<circle class="st2" cx="386.5" cy="33.6" r="7.1"/>
</g>
<text transform="matrix(1 0 0 1 263.8824 376.5281)" class="st3 st4">IN</text>
<text transform="matrix(1 0 0 1 391.2827 488.7935)" class="st3 st4">VIDEO</text>
<text transform="matrix(6.123234e-17 -1 1 6.123234e-17 768.1055 206.2285)" class="st3 st5">KUVA | ART&amp;TECH | 2022</text>
<g>
	<rect x="67.9" y="353.5" class="st6" width="48.3" height="46.1"/>
</g>
<text transform="matrix(1 0 0 1 428.8467 395.9727)" class="st3 st5">VIDEO</text>
<text transform="matrix(1 0 0 1 490.0185 395.9724)" class="st3 st5">AUDIO</text>
<rect x="233" y="385.5" class="st6" width="39.7" height="8.5"/>
<rect x="369" y="365.7" class="st2" width="31.2" height="19.9"/>
<rect x="419.1" y="357.3" class="st2" width="52.4" height="28.2"/>
<text transform="matrix(1 0 0 1 366.0957 395.9726)" class="st3 st5">POWER</text>
<text transform="matrix(1 0 0 1 366.3779 337.4037)" class="st3 st5">PLAY</text>
<text transform="matrix(1 0 0 1 425.3315 337.4047)" class="st3 st5">LOOP</text>
<circle class="st6" cx="409.2" cy="334.3" r="9.2"/>
<path class="st7" d="M518.4,334.3"/>
<polygon class="st6" points="77.9,449.9 77.9,458.4 21.2,458.4 21.2,496.7 175.7,496.7 175.7,449.9 "/>
<text transform="matrix(1 0 0 1 35.1609 443.7643)" class="st3 st5">SYNC</text>
<text transform="matrix(1 0 0 1 84.2141 443.7644)" class="st3 st5">USB x 4</text>
<circle class="st2" cx="506.2" cy="371.4" r="14.2"/>
<text transform="matrix(1 0 0 1 203.4286 488.938)" class="st3 st4">OUT</text>
<g>
	<rect x="237.3" y="465.7" class="st6" width="48.3" height="46.1"/>
</g>
</svg>
