<?xml version="1.0" encoding="utf-8"?>
<!-- Generator: Adobe Illustrator 26.3.1, SVG Export Plug-In . SVG Version: 6.00 Build 0)  -->
<svg version="1.1" id="Layer_1" xmlns="http://www.w3.org/2000/svg" xmlns:xlink="http://www.w3.org/1999/xlink" x="0px" y="0px"
	 viewBox="0 0 2834.65 1984.25" style="enable-background:new 0 0 2834.65 1984.25;" xml:space="preserve">
<style type="text/css">
	.st0{font-family:'Arial-Black';}
	.st1{font-size:56px;}
	.st2{fill:none;stroke:#010101;stroke-width:1.000000e-03;stroke-linecap:round;stroke-linejoin:round;stroke-miterlimit:11.3386;}
	.st3{fill:none;stroke:#3A53A4;stroke-width:1.000000e-03;stroke-linecap:round;stroke-linejoin:round;stroke-miterlimit:11.3386;}
	.st4{fill:none;stroke:#000000;stroke-width:1.000000e-03;stroke-miterlimit:10;}
</style>
<text transform="matrix(1 0 0 1 261.0006 377.7085)" class="st0 st1">IN</text>
<g id="p-0_00000126281491973702309040000006817792472289633957_">
	<path class="st2" d="M26.91,514.85h28.2v8.36c0,0.08,0.06,0.14,0.14,0.14h17.01c0.08,0,0.14-0.06,0.14-0.14v-8.36h16.72v8.36
		c0,0.08,0.06,0.14,0.14,0.14h17.01c0.08,0,0.14-0.06,0.14-0.14v-8.36h16.72v8.36c0,0.08,0.06,0.14,0.14,0.14h17.01
		c0.08,0,0.14-0.06,0.14-0.14v-8.36h16.72v8.36c0,0.08,0.06,0.14,0.14,0.14h17.01c0.08,0,0.14-0.06,0.14-0.14v-8.36h16.72v8.36
		c0,0.08,0.06,0.14,0.14,0.14h17.01c0.08,0,0.14-0.06,0.14-0.14v-8.36h16.72v8.36c0,0.08,0.06,0.14,0.14,0.14h17.01
		c0.08,0,0.14-0.06,0.14-0.14v-8.36h16.72v8.36c0,0.08,0.06,0.14,0.14,0.14h17.01c0.08,0,0.14-0.06,0.14-0.14v-8.36h16.72v8.36
		c0,0.08,0.06,0.14,0.14,0.14h17.01c0.08,0,0.14-0.06,0.14-0.14v-8.36h28.2h8.5c0.08,0,0.14-0.06,0.14-0.14v-19.84
		c0-0.08-0.06-0.14-0.14-0.14h-8.36V478h8.36c0.08,0,0.14-0.06,0.14-0.14v-17.01c0-0.08-0.06-0.14-0.14-0.14h-8.36v-16.72h8.36
		c0.08,0,0.14-0.06,0.14-0.14V424v-8.5c0-0.08-0.06-0.14-0.14-0.14h-8.5h-28.35c-0.08,0-0.14,0.06-0.14,0.14v8.36h-16.72v-8.36
		c0-0.08-0.06-0.14-0.14-0.14h-17.01c-0.08,0-0.14,0.06-0.14,0.14v8.36H259.5v-8.36c0-0.08-0.06-0.14-0.14-0.14h-17.01
		c-0.08,0-0.14,0.06-0.14,0.14v8.36h-16.72v-8.36c0-0.08-0.06-0.14-0.14-0.14h-17.01c-0.08,0-0.14,0.06-0.14,0.14v8.36h-16.72v-8.36
		c0-0.08-0.06-0.14-0.14-0.14h-17.01c-0.08,0-0.14,0.06-0.14,0.14v8.36h-16.72v-8.36c0-0.08-0.06-0.14-0.14-0.14H140.3
		c-0.08,0-0.14,0.06-0.14,0.14v8.36h-16.72v-8.36c0-0.08-0.06-0.14-0.14-0.14h-17.01c-0.08,0-0.14,0.06-0.14,0.14v8.36H89.42v-8.36
		c0-0.08-0.06-0.14-0.14-0.14H72.27c-0.08,0-0.14,0.06-0.14,0.14v8.36H55.4v-8.36c0-0.08-0.06-0.14-0.14-0.14H26.91h-8.5
		c-0.08,0-0.14,0.06-0.14,0.14v8.5v19.84c0,0.08,0.06,0.14,0.14,0.14h8.36v16.72h-8.36c-0.08,0-0.14,0.06-0.14,0.14v17.01
		c0,0.08,0.06,0.14,0.14,0.14h8.36v16.72h-8.36c-0.08,0-0.14,0.06-0.14,0.14v19.84c0,0.08,0.06,0.14,0.14,0.14H26.91z"/>
</g>
<g id="p-1_00000005233463551101716360000013843159468021038979_">
	<path class="st2" d="M360.27,514.85h28.2v8.36c0,0.08,0.06,0.14,0.14,0.14h17.01c0.08,0,0.14-0.06,0.14-0.14v-8.36h16.72v8.36
		c0,0.08,0.06,0.14,0.14,0.14h17.01c0.08,0,0.14-0.06,0.14-0.14v-8.36h16.72v8.36c0,0.08,0.06,0.14,0.14,0.14h17.01
		c0.08,0,0.14-0.06,0.14-0.14v-8.36h16.72v8.36c0,0.08,0.06,0.14,0.14,0.14h17.01c0.08,0,0.14-0.06,0.14-0.14v-8.36h16.72v8.36
		c0,0.08,0.06,0.14,0.14,0.14h17.01c0.08,0,0.14-0.06,0.14-0.14v-8.36h16.72v8.36c0,0.08,0.06,0.14,0.14,0.14h17.01
		c0.08,0,0.14-0.06,0.14-0.14v-8.36h28.2c0.08,0,0.14-0.06,0.14-0.14v-19.7h8.36c0.08,0,0.14-0.06,0.14-0.14v-17.01
		c0-0.08-0.06-0.14-0.14-0.14h-8.36v-16.72h8.36c0.08,0,0.14-0.06,0.14-0.14v-17.01c0-0.08-0.06-0.14-0.14-0.14h-8.36V424v-8.5
		c0-0.08-0.06-0.14-0.14-0.14H575.7c-0.08,0-0.14,0.06-0.14,0.14v8.36h-16.72v-8.36c0-0.08-0.06-0.14-0.14-0.14h-17.01
		c-0.08,0-0.14,0.06-0.14,0.14v8.36h-16.72v-8.36c0-0.08-0.06-0.14-0.14-0.14h-17.01c-0.08,0-0.14,0.06-0.14,0.14v8.36H490.8v-8.36
		c0-0.08-0.06-0.14-0.14-0.14h-17.01c-0.08,0-0.14,0.06-0.14,0.14v8.36h-16.72v-8.36c0-0.08-0.06-0.14-0.14-0.14h-17.01
		c-0.08,0-0.14,0.06-0.14,0.14v8.36h-16.72v-8.36c0-0.08-0.06-0.14-0.14-0.14h-17.01c-0.08,0-0.14,0.06-0.14,0.14v8.36h-16.72v-8.36
		c0-0.08-0.06-0.14-0.14-0.14h-28.35c-0.08,0-0.14,0.06-0.14,0.14v8.5v19.7h-8.36c-0.08,0-0.14,0.06-0.14,0.14v17.01
		c0,0.08,0.06,0.14,0.14,0.14h8.36v16.72h-8.36c-0.08,0-0.14,0.06-0.14,0.14v17.01c0,0.08,0.06,0.14,0.14,0.14h8.36v19.7
		C360.13,514.79,360.19,514.85,360.27,514.85z"/>
</g>
<g id="p-2_00000151527260754402245310000000339584135453027233_">
	<path class="st2" d="M360.27,402.6h28.2v8.36c0,0.08,0.06,0.14,0.14,0.14h17.01c0.08,0,0.14-0.06,0.14-0.14v-8.36h16.72v8.36
		c0,0.08,0.06,0.14,0.14,0.14h17.01c0.08,0,0.14-0.06,0.14-0.14v-8.36h16.72v8.36c0,0.08,0.06,0.14,0.14,0.14h17.01
		c0.08,0,0.14-0.06,0.14-0.14v-8.36h16.72v8.36c0,0.08,0.06,0.14,0.14,0.14h17.01c0.08,0,0.14-0.06,0.14-0.14v-8.36h16.72v8.36
		c0,0.08,0.06,0.14,0.14,0.14h17.01c0.08,0,0.14-0.06,0.14-0.14v-8.36h16.72v8.36c0,0.08,0.06,0.14,0.14,0.14h17.01
		c0.08,0,0.14-0.06,0.14-0.14v-8.36h28.2c0.08,0,0.14-0.06,0.14-0.14v-19.7h8.36c0.08,0,0.14-0.06,0.14-0.14v-17.01
		c0-0.08-0.06-0.14-0.14-0.14h-8.36v-16.72h8.36c0.08,0,0.14-0.06,0.14-0.14v-17.01c0-0.08-0.06-0.14-0.14-0.14h-8.36v-19.7v-8.5
		c0-0.08-0.06-0.14-0.14-0.14H575.7c-0.08,0-0.14,0.06-0.14,0.14v8.36h-16.72v-8.36c0-0.08-0.06-0.14-0.14-0.14h-17.01
		c-0.08,0-0.14,0.06-0.14,0.14v8.36h-16.72v-8.36c0-0.08-0.06-0.14-0.14-0.14h-17.01c-0.08,0-0.14,0.06-0.14,0.14v8.36H490.8v-8.36
		c0-0.08-0.06-0.14-0.14-0.14h-17.01c-0.08,0-0.14,0.06-0.14,0.14v8.36h-16.72v-8.36c0-0.08-0.06-0.14-0.14-0.14h-17.01
		c-0.08,0-0.14,0.06-0.14,0.14v8.36h-16.72v-8.36c0-0.08-0.06-0.14-0.14-0.14h-17.01c-0.08,0-0.14,0.06-0.14,0.14v8.36h-16.72v-8.36
		c0-0.08-0.06-0.14-0.14-0.14h-28.35c-0.08,0-0.14,0.06-0.14,0.14v8.5v19.7h-8.36c-0.08,0-0.14,0.06-0.14,0.14v17.01
		c0,0.08,0.06,0.14,0.14,0.14h8.36v16.72h-8.36c-0.08,0-0.14,0.06-0.14,0.14v17.01c0,0.08,0.06,0.14,0.14,0.14h8.36v19.7
		C360.13,402.54,360.19,402.6,360.27,402.6z"/>
</g>
<g id="p-3_00000010995687077339127040000017539052503513347512_">
	<path class="st2" d="M26.91,402.6h28.2v8.36c0,0.08,0.06,0.14,0.14,0.14h17.01c0.08,0,0.14-0.06,0.14-0.14v-8.36h16.72v8.36
		c0,0.08,0.06,0.14,0.14,0.14h17.01c0.08,0,0.14-0.06,0.14-0.14v-8.36h16.72v8.36c0,0.08,0.06,0.14,0.14,0.14h17.01
		c0.08,0,0.14-0.06,0.14-0.14v-8.36h16.72v8.36c0,0.08,0.06,0.14,0.14,0.14h17.01c0.08,0,0.14-0.06,0.14-0.14v-8.36h16.72v8.36
		c0,0.08,0.06,0.14,0.14,0.14h17.01c0.08,0,0.14-0.06,0.14-0.14v-8.36h16.72v8.36c0,0.08,0.06,0.14,0.14,0.14h17.01
		c0.08,0,0.14-0.06,0.14-0.14v-8.36h16.72v8.36c0,0.08,0.06,0.14,0.14,0.14h17.01c0.08,0,0.14-0.06,0.14-0.14v-8.36h16.72v8.36
		c0,0.08,0.06,0.14,0.14,0.14h17.01c0.08,0,0.14-0.06,0.14-0.14v-8.36h28.2h8.5c0.08,0,0.14-0.06,0.14-0.14v-19.84
		c0-0.08-0.06-0.14-0.14-0.14h-8.36v-16.72h8.36c0.08,0,0.14-0.06,0.14-0.14V348.6c0-0.08-0.06-0.14-0.14-0.14h-8.36v-16.72h8.36
		c0.08,0,0.14-0.06,0.14-0.14v-19.84v-8.5c0-0.08-0.06-0.14-0.14-0.14h-8.5h-28.35c-0.08,0-0.14,0.06-0.14,0.14v8.36h-16.72v-8.36
		c0-0.08-0.06-0.14-0.14-0.14h-17.01c-0.08,0-0.14,0.06-0.14,0.14v8.36H259.5v-8.36c0-0.08-0.06-0.14-0.14-0.14h-17.01
		c-0.08,0-0.14,0.06-0.14,0.14v8.36h-16.72v-8.36c0-0.08-0.06-0.14-0.14-0.14h-17.01c-0.08,0-0.14,0.06-0.14,0.14v8.36h-16.72v-8.36
		c0-0.08-0.06-0.14-0.14-0.14h-17.01c-0.08,0-0.14,0.06-0.14,0.14v8.36h-16.72v-8.36c0-0.08-0.06-0.14-0.14-0.14H140.3
		c-0.08,0-0.14,0.06-0.14,0.14v8.36h-16.72v-8.36c0-0.08-0.06-0.14-0.14-0.14h-17.01c-0.08,0-0.14,0.06-0.14,0.14v8.36H89.42v-8.36
		c0-0.08-0.06-0.14-0.14-0.14H72.27c-0.08,0-0.14,0.06-0.14,0.14v8.36H55.4v-8.36c0-0.08-0.06-0.14-0.14-0.14H26.91h-8.5
		c-0.08,0-0.14,0.06-0.14,0.14v8.5v19.84c0,0.08,0.06,0.14,0.14,0.14h8.36v16.72h-8.36c-0.08,0-0.14,0.06-0.14,0.14v17.01
		c0,0.08,0.06,0.14,0.14,0.14h8.36v16.72h-8.36c-0.08,0-0.14,0.06-0.14,0.14v19.84c0,0.08,0.06,0.14,0.14,0.14H26.91z"/>
</g>
<g id="p-4_00000168809121502333075060000007817880689627862417_">
	<path class="st2" d="M26.91,290.35h28.2v8.36c0,0.08,0.06,0.14,0.14,0.14h17.01c0.08,0,0.14-0.06,0.14-0.14v-8.36h16.72v8.36
		c0,0.08,0.06,0.14,0.14,0.14h17.01c0.08,0,0.14-0.06,0.14-0.14v-8.36h16.72v8.36c0,0.08,0.06,0.14,0.14,0.14h17.01
		c0.08,0,0.14-0.06,0.14-0.14v-8.36h16.72v8.36c0,0.08,0.06,0.14,0.14,0.14h17.01c0.08,0,0.14-0.06,0.14-0.14v-8.36h16.72v8.36
		c0,0.08,0.06,0.14,0.14,0.14h17.01c0.08,0,0.14-0.06,0.14-0.14v-8.36h16.72v8.36c0,0.08,0.06,0.14,0.14,0.14h17.01
		c0.08,0,0.14-0.06,0.14-0.14v-8.36h16.72v8.36c0,0.08,0.06,0.14,0.14,0.14h17.01c0.08,0,0.14-0.06,0.14-0.14v-8.36h16.72v8.36
		c0,0.08,0.06,0.14,0.14,0.14h17.01c0.08,0,0.14-0.06,0.14-0.14v-8.36h28.2c0.08,0,0.14-0.06,0.14-0.14V262h8.36
		c0.08,0,0.14-0.06,0.14-0.14v-17.01c0-0.08-0.06-0.14-0.14-0.14h-8.36v-16.72h8.36c0.08,0,0.14-0.06,0.14-0.14v-17.01
		c0-0.08-0.06-0.14-0.14-0.14h-8.36v-16.72h8.36c0.08,0,0.14-0.06,0.14-0.14v-17.01c0-0.08-0.06-0.14-0.14-0.14h-8.36v-16.72h8.36
		c0.08,0,0.14-0.06,0.14-0.14v-17.01c0-0.08-0.06-0.14-0.14-0.14h-8.36v-16.72h8.36c0.08,0,0.14-0.06,0.14-0.14v-17.01
		c0-0.08-0.06-0.14-0.14-0.14h-8.36V91.92h8.36c0.08,0,0.14-0.06,0.14-0.14V74.77c0-0.08-0.06-0.14-0.14-0.14h-8.36v-28.2
		c0-0.08-0.06-0.14-0.14-0.14h-28.2v-8.36c0-0.08-0.06-0.14-0.14-0.14h-17.01c-0.08,0-0.14,0.06-0.14,0.14v8.36h-16.72v-8.36
		c0-0.08-0.06-0.14-0.14-0.14h-17.01c-0.08,0-0.14,0.06-0.14,0.14v8.36h-16.72v-8.36c0-0.08-0.06-0.14-0.14-0.14h-17.01
		c-0.08,0-0.14,0.06-0.14,0.14v8.36h-16.72v-8.36c0-0.08-0.06-0.14-0.14-0.14h-17.01c-0.08,0-0.14,0.06-0.14,0.14v8.36h-16.72v-8.36
		c0-0.08-0.06-0.14-0.14-0.14h-17.01c-0.08,0-0.14,0.06-0.14,0.14v8.36h-16.72v-8.36c0-0.08-0.06-0.14-0.14-0.14h-17.01
		c-0.08,0-0.14,0.06-0.14,0.14v8.36h-16.72v-8.36c0-0.08-0.06-0.14-0.14-0.14H89.28c-0.08,0-0.14,0.06-0.14,0.14v8.36H72.41v-8.36
		c0-0.08-0.06-0.14-0.14-0.14H55.26c-0.08,0-0.14,0.06-0.14,0.14v8.36h-28.2c-0.08,0-0.14,0.06-0.14,0.14v28.2h-8.36
		c-0.08,0-0.14,0.06-0.14,0.14v17.01c0,0.08,0.06,0.14,0.14,0.14h8.36v16.72h-8.36c-0.08,0-0.14,0.06-0.14,0.14v17.01
		c0,0.08,0.06,0.14,0.14,0.14h8.36v16.72h-8.36c-0.08,0-0.14,0.06-0.14,0.14v17.01c0,0.08,0.06,0.14,0.14,0.14h8.36v16.72h-8.36
		c-0.08,0-0.14,0.06-0.14,0.14v17.01c0,0.08,0.06,0.14,0.14,0.14h8.36v16.72h-8.36c-0.08,0-0.14,0.06-0.14,0.14v17.01
		c0,0.08,0.06,0.14,0.14,0.14h8.36v16.72h-8.36c-0.08,0-0.14,0.06-0.14,0.14v17.01c0,0.08,0.06,0.14,0.14,0.14h8.36v28.2
		C26.77,290.29,26.84,290.35,26.91,290.35z"/>
</g>
<g id="p-5_00000112611648289574884730000017404271201364157609_">
	<path class="st3" d="M455.62,280.07h-8.36v-8.22h16.72v8.22H455.62z"/>
	<path class="st3" d="M489.64,280.07h-8.36v-8.22H498v8.22H489.64z"/>
	<path class="st3" d="M523.65,280.07h-8.36v-8.22h16.72v8.22H523.65z"/>
	<path class="st3" d="M557.67,280.07h-8.36v-8.22h16.72v8.22H557.67z"/>
	<path class="st3" d="M591.69,280.07h-8.36v-8.22h16.72v8.22H591.69z"/>
	<path class="st3" d="M625.7,280.07h-8.36v-8.22h16.72v8.22H625.7z"/>
	<path class="st3" d="M659.72,280.07h-8.36v-8.22h16.72v8.22H659.72z"/>
	<path class="st3" d="M693.73,280.07h-8.36v-8.22h16.72v8.22H693.73z"/>
	<path class="st2" d="M383.15,288.85h383.06h20.89c0.1,0,0.17-0.06,0.17-0.14V271.7V27.92V10.92c0-0.08-0.08-0.14-0.17-0.14h-20.89
		H383.15h-20.89c-0.1,0-0.17,0.06-0.17,0.14v17.01V271.7v17.01c0,0.08,0.08,0.14,0.17,0.14H383.15z"/>
	<path class="st3" d="M738.95,234.85v8.36h-8.22v-16.72h8.22V234.85z"/>
	<path class="st3" d="M738.95,200.84v8.36h-8.22v-16.72h8.22V200.84z"/>
	<path class="st3" d="M738.95,166.82v8.36h-8.22v-16.72h8.22V166.82z"/>
	<path class="st3" d="M738.95,132.81v8.36h-8.22v-16.72h8.22V132.81z"/>
	<path class="st3" d="M738.95,98.79v8.36h-8.22V90.43h8.22V98.79z"/>
	<path class="st3" d="M738.95,64.77v8.36h-8.22V56.41h8.22V64.77z"/>
	<path class="st3" d="M693.73,19.56h8.36v8.22h-16.72v-8.22H693.73z"/>
	<path class="st3" d="M659.72,19.56h8.36v8.22h-16.72v-8.22H659.72z"/>
	<path class="st3" d="M625.7,19.56h8.36v8.22h-16.72v-8.22H625.7z"/>
	<path class="st3" d="M591.69,19.56h8.36v8.22h-16.72v-8.22H591.69z"/>
	<path class="st3" d="M557.67,19.56h8.36v8.22h-16.72v-8.22H557.67z"/>
	<path class="st3" d="M523.65,19.56h8.36v8.22h-16.72v-8.22H523.65z"/>
	<path class="st3" d="M489.64,19.56H498v8.22h-16.72v-8.22H489.64z"/>
	<path class="st3" d="M455.62,19.56h8.36v8.22h-16.72v-8.22H455.62z"/>
	<path class="st3" d="M410.41,64.77v-8.36h8.22v16.72h-8.22V64.77z"/>
	<path class="st3" d="M410.41,98.79v-8.36h8.22v16.72h-8.22V98.79z"/>
	<path class="st3" d="M410.41,132.81v-8.36h8.22v16.72h-8.22V132.81z"/>
	<path class="st3" d="M410.41,166.82v-8.36h8.22v16.72h-8.22V166.82z"/>
	<path class="st3" d="M410.41,200.84v-8.36h8.22v16.72h-8.22V200.84z"/>
	<path class="st3" d="M410.41,234.85v-8.36h8.22v16.72h-8.22V234.85z"/>
</g>
<circle class="st4" cx="767.43" cy="269.01" r="7.09"/>
<circle class="st4" cx="767.43" cy="30.62" r="7.09"/>
<circle class="st4" cx="381.92" cy="269.01" r="7.09"/>
<circle class="st4" cx="381.92" cy="30.7" r="7.09"/>
<text transform="matrix(1 0 0 1 192.7001 488.5635)" class="st0 st1">OUT</text>
<text transform="matrix(1 0 0 1 408.6472 488.5632)" class="st0 st1">MOD</text>
</svg>
