<?xml version="1.0" encoding="utf-8"?>
<!-- Generator: Adobe Illustrator 26.3.1, SVG Export Plug-In . SVG Version: 6.00 Build 0)  -->
<svg version="1.1" id="Layer_1" xmlns="http://www.w3.org/2000/svg" xmlns:xlink="http://www.w3.org/1999/xlink" x="0px" y="0px"
	 viewBox="0 0 2834.6 1984.2" style="enable-background:new 0 0 2834.6 1984.2;" xml:space="preserve">
<style type="text/css">
	.st0{font-family:'Arial-Black';}
	.st1{font-size:56px;}
	.st2{fill:none;stroke:#010101;stroke-width:1.000000e-03;stroke-linecap:round;stroke-linejoin:round;stroke-miterlimit:11.3386;}
	.st3{fill:none;stroke:#3A53A4;stroke-width:1.000000e-03;stroke-linecap:round;stroke-linejoin:round;stroke-miterlimit:11.3386;}
	.st4{fill:none;stroke:#000000;stroke-width:1.000000e-03;stroke-miterlimit:10;}
	.st5{font-size:10px;}
</style>
<text transform="matrix(1 0 0 1 131.0006 377.7085)" class="st0 st1">INPUT</text>
<g id="p-0_00000126281491973702309040000006817792472289633957_">
	<path class="st2" d="M26.9,514.8h28.2v8.4c0,0.1,0.1,0.1,0.1,0.1h17c0.1,0,0.1-0.1,0.1-0.1v-8.4h16.7v8.4c0,0.1,0.1,0.1,0.1,0.1h17
		c0.1,0,0.1-0.1,0.1-0.1v-8.4h16.7v8.4c0,0.1,0.1,0.1,0.1,0.1h17c0.1,0,0.1-0.1,0.1-0.1v-8.4h16.7v8.4c0,0.1,0.1,0.1,0.1,0.1h17
		c0.1,0,0.1-0.1,0.1-0.1v-8.4h16.7v8.4c0,0.1,0.1,0.1,0.1,0.1h17c0.1,0,0.1-0.1,0.1-0.1v-8.4h16.7v8.4c0,0.1,0.1,0.1,0.1,0.1h17
		c0.1,0,0.1-0.1,0.1-0.1v-8.4h16.7v8.4c0,0.1,0.1,0.1,0.1,0.1h17c0.1,0,0.1-0.1,0.1-0.1v-8.4h16.7v8.4c0,0.1,0.1,0.1,0.1,0.1h17
		c0.1,0,0.1-0.1,0.1-0.1v-8.4h28.2h8.5c0.1,0,0.1-0.1,0.1-0.1v-19.8c0-0.1-0.1-0.1-0.1-0.1h-8.4V478h8.4c0.1,0,0.1-0.1,0.1-0.1v-17
		c0-0.1-0.1-0.1-0.1-0.1h-8.4V444h8.4c0.1,0,0.1-0.1,0.1-0.1V424v-8.5c0-0.1-0.1-0.1-0.1-0.1h-8.5h-28.4c-0.1,0-0.1,0.1-0.1,0.1v8.4
		h-16.7v-8.4c0-0.1-0.1-0.1-0.1-0.1h-17c-0.1,0-0.1,0.1-0.1,0.1v8.4h-16.7v-8.4c0-0.1-0.1-0.1-0.1-0.1h-17c-0.1,0-0.1,0.1-0.1,0.1
		v8.4h-16.7v-8.4c0-0.1-0.1-0.1-0.1-0.1h-17c-0.1,0-0.1,0.1-0.1,0.1v8.4h-16.7v-8.4c0-0.1-0.1-0.1-0.1-0.1h-17
		c-0.1,0-0.1,0.1-0.1,0.1v8.4h-16.7v-8.4c0-0.1-0.1-0.1-0.1-0.1h-17c-0.1,0-0.1,0.1-0.1,0.1v8.4h-16.7v-8.4c0-0.1-0.1-0.1-0.1-0.1
		h-17c-0.1,0-0.1,0.1-0.1,0.1v8.4H89.4v-8.4c0-0.1-0.1-0.1-0.1-0.1h-17c-0.1,0-0.1,0.1-0.1,0.1v8.4H55.4v-8.4c0-0.1-0.1-0.1-0.1-0.1
		H26.9h-8.5c-0.1,0-0.1,0.1-0.1,0.1v8.5v19.8c0,0.1,0.1,0.1,0.1,0.1h8.4v16.7h-8.4c-0.1,0-0.1,0.1-0.1,0.1v17c0,0.1,0.1,0.1,0.1,0.1
		h8.4v16.7h-8.4c-0.1,0-0.1,0.1-0.1,0.1v19.8c0,0.1,0.1,0.1,0.1,0.1L26.9,514.8L26.9,514.8z"/>
</g>
<g id="p-1_00000005233463551101716360000013843159468021038979_">
	<path class="st2" d="M360.3,514.8h28.2v8.4c0,0.1,0.1,0.1,0.1,0.1h17c0.1,0,0.1-0.1,0.1-0.1v-8.4h16.7v8.4c0,0.1,0.1,0.1,0.1,0.1
		h17c0.1,0,0.1-0.1,0.1-0.1v-8.4h16.7v8.4c0,0.1,0.1,0.1,0.1,0.1h17c0.1,0,0.1-0.1,0.1-0.1v-8.4h16.7v8.4c0,0.1,0.1,0.1,0.1,0.1h17
		c0.1,0,0.1-0.1,0.1-0.1v-8.4h16.7v8.4c0,0.1,0.1,0.1,0.1,0.1h17c0.1,0,0.1-0.1,0.1-0.1v-8.4h16.7v8.4c0,0.1,0.1,0.1,0.1,0.1h17
		c0.1,0,0.1-0.1,0.1-0.1v-8.4H604c0.1,0,0.1-0.1,0.1-0.1V495h8.4c0.1,0,0.1-0.1,0.1-0.1v-17c0-0.1-0.1-0.1-0.1-0.1h-8.4V461h8.4
		c0.1,0,0.1-0.1,0.1-0.1v-17c0-0.1-0.1-0.1-0.1-0.1h-8.4V424v-8.5c0-0.1-0.1-0.1-0.1-0.1h-28.3c-0.1,0-0.1,0.1-0.1,0.1v8.4h-16.7
		v-8.4c0-0.1-0.1-0.1-0.1-0.1h-17c-0.1,0-0.1,0.1-0.1,0.1v8.4h-16.7v-8.4c0-0.1-0.1-0.1-0.1-0.1h-17c-0.1,0-0.1,0.1-0.1,0.1v8.4
		h-16.7v-8.4c0-0.1-0.1-0.1-0.1-0.1h-17c-0.1,0-0.1,0.1-0.1,0.1v8.4h-16.7v-8.4c0-0.1-0.1-0.1-0.1-0.1h-17c-0.1,0-0.1,0.1-0.1,0.1
		v8.4h-16.7v-8.4c0-0.1-0.1-0.1-0.1-0.1h-17c-0.1,0-0.1,0.1-0.1,0.1v8.4h-16.7v-8.4c0-0.1-0.1-0.1-0.1-0.1h-28.4
		c-0.1,0-0.1,0.1-0.1,0.1v8.5v19.7h-8.4c-0.1,0-0.1,0.1-0.1,0.1v17c0,0.1,0.1,0.1,0.1,0.1h8.4v16.7h-8.4c-0.1,0-0.1,0.1-0.1,0.1v17
		c0,0.1,0.1,0.1,0.1,0.1h8.4v19.7C360.1,514.8,360.2,514.8,360.3,514.8z"/>
</g>
<g id="p-2_00000151527260754402245310000000339584135453027233_">
	<path class="st2" d="M360.3,402.6h28.2v8.4c0,0.1,0.1,0.1,0.1,0.1h17c0.1,0,0.1-0.1,0.1-0.1v-8.4h16.7v8.4c0,0.1,0.1,0.1,0.1,0.1
		h17c0.1,0,0.1-0.1,0.1-0.1v-8.4h16.7v8.4c0,0.1,0.1,0.1,0.1,0.1h17c0.1,0,0.1-0.1,0.1-0.1v-8.4h16.7v8.4c0,0.1,0.1,0.1,0.1,0.1h17
		c0.1,0,0.1-0.1,0.1-0.1v-8.4h16.7v8.4c0,0.1,0.1,0.1,0.1,0.1h17c0.1,0,0.1-0.1,0.1-0.1v-8.4h16.7v8.4c0,0.1,0.1,0.1,0.1,0.1h17
		c0.1,0,0.1-0.1,0.1-0.1v-8.4H604c0.1,0,0.1-0.1,0.1-0.1v-19.7h8.4c0.1,0,0.1-0.1,0.1-0.1v-17c0-0.1-0.1-0.1-0.1-0.1h-8.4v-16.7h8.4
		c0.1,0,0.1-0.1,0.1-0.1v-17c0-0.1-0.1-0.1-0.1-0.1h-8.4v-19.7v-8.5c0-0.1-0.1-0.1-0.1-0.1h-28.3c-0.1,0-0.1,0.1-0.1,0.1v8.4h-16.7
		v-8.4c0-0.1-0.1-0.1-0.1-0.1h-17c-0.1,0-0.1,0.1-0.1,0.1v8.4h-16.7v-8.4c0-0.1-0.1-0.1-0.1-0.1h-17c-0.1,0-0.1,0.1-0.1,0.1v8.4
		h-16.7v-8.4c0-0.1-0.1-0.1-0.1-0.1h-17c-0.1,0-0.1,0.1-0.1,0.1v8.4h-16.7v-8.4c0-0.1-0.1-0.1-0.1-0.1h-17c-0.1,0-0.1,0.1-0.1,0.1
		v8.4h-16.7v-8.4c0-0.1-0.1-0.1-0.1-0.1h-17c-0.1,0-0.1,0.1-0.1,0.1v8.4h-16.7v-8.4c0-0.1-0.1-0.1-0.1-0.1h-28.4
		c-0.1,0-0.1,0.1-0.1,0.1v8.5v19.7h-8.4c-0.1,0-0.1,0.1-0.1,0.1v17c0,0.1,0.1,0.1,0.1,0.1h8.4v16.7h-8.4c-0.1,0-0.1,0.1-0.1,0.1v17
		c0,0.1,0.1,0.1,0.1,0.1h8.4v19.7C360.1,402.5,360.2,402.6,360.3,402.6z"/>
</g>
<g id="p-3_00000010995687077339127040000017539052503513347512_">
	<path class="st2" d="M26.9,402.6h28.2v8.4c0,0.1,0.1,0.1,0.1,0.1h17c0.1,0,0.1-0.1,0.1-0.1v-8.4h16.7v8.4c0,0.1,0.1,0.1,0.1,0.1h17
		c0.1,0,0.1-0.1,0.1-0.1v-8.4h16.7v8.4c0,0.1,0.1,0.1,0.1,0.1h17c0.1,0,0.1-0.1,0.1-0.1v-8.4h16.7v8.4c0,0.1,0.1,0.1,0.1,0.1h17
		c0.1,0,0.1-0.1,0.1-0.1v-8.4h16.7v8.4c0,0.1,0.1,0.1,0.1,0.1h17c0.1,0,0.1-0.1,0.1-0.1v-8.4h16.7v8.4c0,0.1,0.1,0.1,0.1,0.1h17
		c0.1,0,0.1-0.1,0.1-0.1v-8.4h16.7v8.4c0,0.1,0.1,0.1,0.1,0.1h17c0.1,0,0.1-0.1,0.1-0.1v-8.4h16.7v8.4c0,0.1,0.1,0.1,0.1,0.1h17
		c0.1,0,0.1-0.1,0.1-0.1v-8.4h28.2h8.5c0.1,0,0.1-0.1,0.1-0.1v-19.8c0-0.1-0.1-0.1-0.1-0.1h-8.4v-16.7h8.4c0.1,0,0.1-0.1,0.1-0.1
		v-17c0-0.1-0.1-0.1-0.1-0.1h-8.4v-16.7h8.4c0.1,0,0.1-0.1,0.1-0.1v-19.8v-8.5c0-0.1-0.1-0.1-0.1-0.1h-8.5h-28.4
		c-0.1,0-0.1,0.1-0.1,0.1v8.4h-16.7v-8.4c0-0.1-0.1-0.1-0.1-0.1h-17c-0.1,0-0.1,0.1-0.1,0.1v8.4h-16.7v-8.4c0-0.1-0.1-0.1-0.1-0.1
		h-17c-0.1,0-0.1,0.1-0.1,0.1v8.4h-16.7v-8.4c0-0.1-0.1-0.1-0.1-0.1h-17c-0.1,0-0.1,0.1-0.1,0.1v8.4h-16.7v-8.4
		c0-0.1-0.1-0.1-0.1-0.1h-17c-0.1,0-0.1,0.1-0.1,0.1v8.4h-16.7v-8.4c0-0.1-0.1-0.1-0.1-0.1h-17c-0.1,0-0.1,0.1-0.1,0.1v8.4h-16.7
		v-8.4c0-0.1-0.1-0.1-0.1-0.1h-17c-0.1,0-0.1,0.1-0.1,0.1v8.4H89.4v-8.4c0-0.1-0.1-0.1-0.1-0.1h-17c-0.1,0-0.1,0.1-0.1,0.1v8.4H55.4
		v-8.4c0-0.1-0.1-0.1-0.1-0.1H26.9h-8.5c-0.1,0-0.1,0.1-0.1,0.1v8.5v19.8c0,0.1,0.1,0.1,0.1,0.1h8.4v16.7h-8.4
		c-0.1,0-0.1,0.1-0.1,0.1v17c0,0.1,0.1,0.1,0.1,0.1h8.4v16.7h-8.4c-0.1,0-0.1,0.1-0.1,0.1v19.8c0,0.1,0.1,0.1,0.1,0.1L26.9,402.6
		L26.9,402.6z"/>
</g>
<g id="p-4_00000168809121502333075060000007817880689627862417_">
	<path class="st2" d="M26.9,290.4h28.2v8.4c0,0.1,0.1,0.1,0.1,0.1h17c0.1,0,0.1-0.1,0.1-0.1v-8.4h16.7v8.4c0,0.1,0.1,0.1,0.1,0.1h17
		c0.1,0,0.1-0.1,0.1-0.1v-8.4h16.7v8.4c0,0.1,0.1,0.1,0.1,0.1h17c0.1,0,0.1-0.1,0.1-0.1v-8.4h16.7v8.4c0,0.1,0.1,0.1,0.1,0.1h17
		c0.1,0,0.1-0.1,0.1-0.1v-8.4h16.7v8.4c0,0.1,0.1,0.1,0.1,0.1h17c0.1,0,0.1-0.1,0.1-0.1v-8.4h16.7v8.4c0,0.1,0.1,0.1,0.1,0.1h17
		c0.1,0,0.1-0.1,0.1-0.1v-8.4h16.7v8.4c0,0.1,0.1,0.1,0.1,0.1h17c0.1,0,0.1-0.1,0.1-0.1v-8.4h16.7v8.4c0,0.1,0.1,0.1,0.1,0.1h17
		c0.1,0,0.1-0.1,0.1-0.1v-8.4h28.2c0.1,0,0.1-0.1,0.1-0.1V262h8.4c0.1,0,0.1-0.1,0.1-0.1v-17c0-0.1-0.1-0.1-0.1-0.1h-8.4V228h8.4
		c0.1,0,0.1-0.1,0.1-0.1v-17c0-0.1-0.1-0.1-0.1-0.1h-8.4V194h8.4c0.1,0,0.1-0.1,0.1-0.1v-17c0-0.1-0.1-0.1-0.1-0.1h-8.4V160h8.4
		c0.1,0,0.1-0.1,0.1-0.1v-17c0-0.1-0.1-0.1-0.1-0.1h-8.4V126h8.4c0.1,0,0.1-0.1,0.1-0.1v-17c0-0.1-0.1-0.1-0.1-0.1h-8.4V91.9h8.4
		c0.1,0,0.1-0.1,0.1-0.1v-17c0-0.1-0.1-0.1-0.1-0.1h-8.4V46.4c0-0.1-0.1-0.1-0.1-0.1h-28.2v-8.4c0-0.1-0.1-0.1-0.1-0.1h-17
		c-0.1,0-0.1,0.1-0.1,0.1v8.4h-16.7v-8.4c0-0.1-0.1-0.1-0.1-0.1h-17c-0.1,0-0.1,0.1-0.1,0.1v8.4h-16.7v-8.4c0-0.1-0.1-0.1-0.1-0.1
		h-17c-0.1,0-0.1,0.1-0.1,0.1v8.4h-16.7v-8.4c0-0.1-0.1-0.1-0.1-0.1h-17c-0.1,0-0.1,0.1-0.1,0.1v8.4h-16.7v-8.4
		c0-0.1-0.1-0.1-0.1-0.1h-17c-0.1,0-0.1,0.1-0.1,0.1v8.4h-16.7v-8.4c0-0.1-0.1-0.1-0.1-0.1h-17c-0.1,0-0.1,0.1-0.1,0.1v8.4h-16.7
		v-8.4c0-0.1-0.1-0.1-0.1-0.1h-17c-0.1,0-0.1,0.1-0.1,0.1v8.4H72.4v-8.4c0-0.1-0.1-0.1-0.1-0.1h-17c-0.1,0-0.1,0.1-0.1,0.1v8.4H26.9
		c-0.1,0-0.1,0.1-0.1,0.1v28.2h-8.4c-0.1,0-0.1,0.1-0.1,0.1v17c0,0.1,0.1,0.1,0.1,0.1h8.4v16.7h-8.4c-0.1,0-0.1,0.1-0.1,0.1v17
		c0,0.1,0.1,0.1,0.1,0.1h8.4v16.7h-8.4c-0.1,0-0.1,0.1-0.1,0.1v17c0,0.1,0.1,0.1,0.1,0.1h8.4v16.7h-8.4c-0.1,0-0.1,0.1-0.1,0.1v17
		c0,0.1,0.1,0.1,0.1,0.1h8.4v16.7h-8.4c-0.1,0-0.1,0.1-0.1,0.1v17c0,0.1,0.1,0.1,0.1,0.1h8.4v16.7h-8.4c-0.1,0-0.1,0.1-0.1,0.1v17
		c0,0.1,0.1,0.1,0.1,0.1h8.4v28.2C26.8,290.3,26.8,290.4,26.9,290.4z"/>
</g>
<g id="p-5_00000112611648289574884730000017404271201364157609_">
	<path class="st3" d="M455.6,280.1h-8.4v-8.2H464v8.2H455.6z"/>
	<path class="st3" d="M489.6,280.1h-8.4v-8.2H498v8.2H489.6z"/>
	<path class="st3" d="M523.7,280.1h-8.4v-8.2H532v8.2H523.7z"/>
	<path class="st3" d="M557.7,280.1h-8.4v-8.2H566v8.2H557.7z"/>
	<path class="st3" d="M591.7,280.1h-8.4v-8.2H600v8.2H591.7z"/>
	<path class="st3" d="M625.7,280.1h-8.4v-8.2h16.7v8.2H625.7z"/>
	<path class="st3" d="M659.7,280.1h-8.4v-8.2h16.7v8.2H659.7z"/>
	<path class="st3" d="M693.7,280.1h-8.4v-8.2h16.7v8.2H693.7z"/>
	<path class="st2" d="M383.1,288.9h383.1h20.9c0.1,0,0.2-0.1,0.2-0.1v-17V27.9v-17c0-0.1-0.1-0.1-0.2-0.1h-20.9H383.1h-20.9
		c-0.1,0-0.2,0.1-0.2,0.1v17v243.8v17c0,0.1,0.1,0.1,0.2,0.1L383.1,288.9L383.1,288.9z"/>
	<path class="st3" d="M739,234.9v8.4h-8.2v-16.7h8.2V234.9z"/>
	<path class="st3" d="M739,200.8v8.4h-8.2v-16.7h8.2V200.8z"/>
	<path class="st3" d="M739,166.8v8.4h-8.2v-16.7h8.2V166.8z"/>
	<path class="st3" d="M739,132.8v8.4h-8.2v-16.7h8.2V132.8z"/>
	<path class="st3" d="M739,98.8v8.4h-8.2V90.4h8.2V98.8z"/>
	<path class="st3" d="M739,64.8v8.4h-8.2V56.4h8.2V64.8z"/>
	<path class="st3" d="M693.7,19.6h8.4v8.2h-16.7v-8.2C685.4,19.6,693.7,19.6,693.7,19.6z"/>
	<path class="st3" d="M659.7,19.6h8.4v8.2h-16.7v-8.2C651.4,19.6,659.7,19.6,659.7,19.6z"/>
	<path class="st3" d="M625.7,19.6h8.4v8.2h-16.7v-8.2C617.3,19.6,625.7,19.6,625.7,19.6z"/>
	<path class="st3" d="M591.7,19.6h8.4v8.2h-16.7v-8.2C583.3,19.6,591.7,19.6,591.7,19.6z"/>
	<path class="st3" d="M557.7,19.6h8.4v8.2h-16.7v-8.2C549.3,19.6,557.7,19.6,557.7,19.6z"/>
	<path class="st3" d="M523.7,19.6h8.4v8.2h-16.7v-8.2C515.3,19.6,523.7,19.6,523.7,19.6z"/>
	<path class="st3" d="M489.6,19.6h8.4v8.2h-16.7v-8.2C481.3,19.6,489.6,19.6,489.6,19.6z"/>
	<path class="st3" d="M455.6,19.6h8.4v8.2h-16.7v-8.2C447.3,19.6,455.6,19.6,455.6,19.6z"/>
	<path class="st3" d="M410.4,64.8v-8.4h8.2v16.7h-8.2V64.8z"/>
	<path class="st3" d="M410.4,98.8v-8.4h8.2v16.7h-8.2V98.8z"/>
	<path class="st3" d="M410.4,132.8v-8.4h8.2v16.7h-8.2V132.8z"/>
	<path class="st3" d="M410.4,166.8v-8.4h8.2v16.7h-8.2V166.8z"/>
	<path class="st3" d="M410.4,200.8v-8.4h8.2v16.7h-8.2V200.8z"/>
	<path class="st3" d="M410.4,234.9v-8.4h8.2v16.7h-8.2V234.9z"/>
</g>
<circle class="st4" cx="767.4" cy="269" r="7.1"/>
<circle class="st4" cx="767.4" cy="30.6" r="7.1"/>
<circle class="st4" cx="381.9" cy="269" r="7.1"/>
<circle class="st4" cx="381.9" cy="30.7" r="7.1"/>
<text transform="matrix(1 0 0 1 62.7001 488.5635)" class="st0 st1">OUTPUT</text>
<text transform="matrix(1 0 0 1 408.6472 488.5633)" class="st0 st1">MOD</text>
<text transform="matrix(6.123234e-17 -1 1 6.123234e-17 771.2095 218.127)" class="st0 st5">KUVA | ART&amp;TECH | 2022</text>
</svg>
